<svg width="512" height="512" viewBox="0 0 512 512" fill="none" xmlns="http://www.w3.org/2000/svg">
<g clip-path="url(#clip0_110_8)">
<circle cx="256" cy="256" r="256" fill="white"/>
<path fill-rule="evenodd" clip-rule="evenodd" d="M352.553 158.673C339.978 146.028 325.02 136.003 308.545 129.179C292.069 122.355 274.403 118.867 256.57 118.917C181.782 118.891 120.909 179.738 120.883 254.526C120.86 278.333 127.119 301.725 139.027 322.34L119.742 392.631L191.675 373.77C211.572 384.6 233.864 390.276 256.518 390.279H256.57C331.352 390.279 392.225 329.425 392.257 254.637C392.312 236.811 388.831 219.151 382.016 202.679C375.2 186.207 365.186 171.25 352.553 158.673ZM256.57 367.357H256.524C236.328 367.36 216.503 361.933 199.125 351.643L195.006 349.199L152.323 360.402L163.715 318.801L161.037 314.565C149.739 296.594 143.76 275.792 143.791 254.565C143.791 192.408 194.406 141.813 256.616 141.813C271.424 141.815 286.087 144.735 299.767 150.405C313.447 156.075 325.876 164.384 336.345 174.858C346.813 185.332 355.116 197.765 360.779 211.448C366.442 225.131 369.354 239.796 369.349 254.604C369.322 316.794 318.727 367.357 256.57 367.357ZM318.434 282.916C315.038 281.222 298.373 273.023 295.264 271.889C292.155 270.754 289.894 270.194 287.639 273.59C285.384 276.985 278.879 284.617 276.898 286.879C274.917 289.14 272.948 289.421 269.553 287.726C266.157 286.031 255.214 282.447 242.29 270.904C232.214 261.917 225.41 250.818 223.429 247.441C221.447 244.065 223.22 242.227 224.915 240.526C226.44 239.008 228.31 236.57 230.005 234.589C231.699 232.608 232.266 231.193 233.394 228.932C234.521 226.67 233.961 224.689 233.114 222.994C232.266 221.3 225.482 204.615 222.686 197.83C219.929 191.222 217.139 192.115 215.054 192.01C213.098 191.912 210.817 191.893 208.536 191.893C206.818 191.938 205.128 192.339 203.572 193.069C202.017 193.799 200.629 194.843 199.496 196.136C196.388 199.525 187.635 207.73 187.635 224.409C187.635 241.087 199.783 257.205 201.478 259.473C203.172 261.741 225.384 295.971 259.392 310.648C265.703 313.365 272.154 315.748 278.716 317.785C286.844 320.392 294.235 320.001 300.074 319.127C306.592 318.156 320.135 310.928 322.957 303.01C325.779 295.091 325.786 288.313 324.912 286.898C324.039 285.484 321.823 284.63 318.434 282.929V282.916Z" fill="#25D366"/>
</g>
<defs>
<clipPath id="clip0_110_8">
<rect width="512" height="512" fill="white"/>
</clipPath>
</defs>
</svg>
