<svg width="512" height="512" viewBox="0 0 512 512" fill="none" xmlns="http://www.w3.org/2000/svg">
<path fill-rule="evenodd" clip-rule="evenodd" d="M461.993 357.464C461.993 359.721 461.922 364.617 461.788 368.392C461.457 377.64 460.723 389.556 459.616 395.009C458.13 402.741 455.62 410.24 452.152 417.309C444.512 432.37 432.27 444.602 417.203 452.229C410.09 455.703 402.546 458.21 394.769 459.686C389.386 460.78 377.548 461.492 368.356 461.802C364.575 461.937 359.679 462 357.436 462H154.557C152.3 462 147.411 461.929 143.63 461.795C134.381 461.464 122.466 460.73 117.012 459.623C109.28 458.137 101.781 455.627 94.7125 452.159C79.6554 444.517 67.4258 432.275 59.7989 417.21C56.3232 410.098 53.813 402.553 52.3351 394.776C51.2487 389.393 50.5291 377.556 50.2187 368.363C50.0705 364.575 50 359.7 50 357.436L50.0353 154.557C50.0353 152.3 50.0988 147.411 50.2399 143.63C50.5714 134.381 51.2981 122.466 52.4127 117.012C53.8985 109.28 56.4086 101.781 59.8765 94.7125C67.517 79.6542 79.7594 67.4241 94.8254 59.7989C101.935 56.3219 109.477 53.8117 117.252 52.3351C122.663 51.2487 134.48 50.5291 143.665 50.2046C147.453 50.0705 152.342 50 154.593 50L357.464 50.0353C359.721 50.0353 364.617 50.0988 368.392 50.2399C377.64 50.5714 389.556 51.3051 395.009 52.4127C402.741 53.8985 410.24 56.4086 417.309 59.8765C432.372 67.5131 444.604 79.7598 452.222 94.8325C455.702 101.94 458.213 109.483 459.686 117.259C460.772 122.642 461.492 134.487 461.802 143.672C461.937 147.46 462 152.349 462 154.6L461.993 357.464Z" fill="white"/>
<path fill-rule="evenodd" clip-rule="evenodd" d="M364.371 148.631C350.76 134.944 334.569 124.093 316.735 116.706C298.901 109.319 279.78 105.544 260.477 105.598C179.524 105.57 113.634 171.432 113.605 252.385C113.582 278.154 120.356 303.474 133.246 325.788L112.371 401.873L190.233 381.457C211.77 393.18 235.9 399.323 260.42 399.326H260.477C341.422 399.326 407.313 333.457 407.348 252.504C407.407 233.209 403.639 214.094 396.262 196.264C388.885 178.434 378.045 162.245 364.371 148.631ZM260.477 374.515H260.427C238.567 374.519 217.107 368.644 198.297 357.506L193.838 354.861L147.637 366.988L159.969 321.958L157.069 317.372C144.84 297.92 138.368 275.404 138.403 252.427C138.403 185.146 193.189 130.381 260.526 130.381C276.555 130.384 292.427 133.544 307.234 139.681C322.042 145.819 335.495 154.813 346.827 166.15C358.158 177.487 367.145 190.945 373.275 205.756C379.404 220.567 382.556 236.44 382.551 252.469C382.522 319.785 327.757 374.515 260.477 374.515ZM327.44 283.115C323.764 281.28 305.725 272.406 302.36 271.178C298.995 269.951 296.547 269.344 294.106 273.019C291.665 276.695 284.625 284.956 282.48 287.404C280.336 289.852 278.205 290.155 274.53 288.321C270.854 286.487 259.009 282.607 245.02 270.113C234.113 260.385 226.748 248.37 224.604 244.716C222.459 241.062 224.378 239.072 226.212 237.231C227.863 235.587 229.888 232.949 231.722 230.804C233.556 228.66 234.17 227.129 235.39 224.681C236.611 222.233 236.004 220.088 235.087 218.254C234.17 216.42 226.826 198.36 223.799 191.016C220.815 183.862 217.796 184.829 215.538 184.716C213.422 184.61 210.953 184.589 208.484 184.589C206.624 184.638 204.795 185.071 203.111 185.862C201.427 186.652 199.925 187.783 198.699 189.182C195.334 192.85 185.859 201.732 185.859 219.785C185.859 237.838 199.009 255.284 200.844 257.739C202.678 260.194 226.72 297.245 263.531 313.132C270.363 316.074 277.345 318.652 284.448 320.857C293.246 323.679 301.246 323.256 307.567 322.31C314.621 321.259 329.281 313.436 332.336 304.864C335.39 296.293 335.397 288.956 334.452 287.425C333.507 285.894 331.108 284.97 327.44 283.129V283.115Z" fill="#25D366"/>
</svg>
